# xmcd CD database file
#
# Track frame offsets:
#	150
#	21494
#	39763
#	66009
#	85042
#	110264
#	130200
#	154264
#	180785
#	203056
#	213390
#	230804
#
# Disc length: 3391 seconds
#
# Revision: 0
# Processed by: cddbd v1.5.2PL0 Copyright (c) Steve Scherf et al.
# Submitted via: CDex 1.70beta2
#
DISCID=970d3d0c
DTITLE=nunzio la vecchia - emotion
DYEAR=2007
DGENRE=Jazz
TTITLE0=welcome
TTITLE1=the first touch
TTITLE2=dancing on a small carpet
TTITLE3=cool mood
TTITLE4=for you ... (spanish flower)
TTITLE5=instead of waiting
TTITLE6=emotion
TTITLE7=no comprise
TTITLE8=latin mango
TTITLE9=and me (spanish flower)
TTITLE10=sailing clouds
TTITLE11=meanwhile
EXTD=YEAR: 2007
EXTT0=
EXTT1=
EXTT2=
EXTT3=
EXTT4=
EXTT5=
EXTT6=
EXTT7=
EXTT8=
EXTT9=
EXTT10=
EXTT11=
PLAYORDER=
